<?xml version="1.0" standalone="no"?>
<!DOCTYPE svg PUBLIC "-//W3C//DTD SVG 20010904//EN"
 "http://www.w3.org/TR/2001/REC-SVG-20010904/DTD/svg10.dtd">
<svg version="1.0" xmlns="http://www.w3.org/2000/svg"
 width="16.000000pt" height="16.000000pt" viewBox="0 0 16.000000 16.000000"
 preserveAspectRatio="xMidYMid meet">
<metadata>
Created by potrace 1.11, written by Peter Selinger 2001-2013
</metadata>
<g transform="translate(0.000000,16.000000) scale(0.006154,-0.006154)"
fill="#000000" stroke="none">
<path d="M1317 2501 c-33 -44 -101 -171 -125 -236 -49 -132 -81 -314 -77 -433
7 -191 69 -324 258 -549 190 -227 240 -337 232 -513 -14 -326 -187 -616 -418
-700 -61 -22 -15 -31 146 -27 133 4 179 9 258 30 224 59 421 170 578 325 84
85 152 163 160 186 2 6 7 13 10 16 32 26 151 284 166 360 1 3 7 32 15 65 20
93 21 101 25 245 6 196 -28 371 -101 526 -13 28 -24 54 -24 57 0 7 -72 130
-80 137 -4 3 -20 25 -37 50 -26 39 -53 72 -102 125 -31 33 -125 114 -172 147
-194 139 -403 218 -615 232 l-61 4 -36 -47z"/>
<path d="M708 2402 c-94 -50 -181 -110 -250 -173 -24 -21 -47 -39 -51 -39 -5
0 -6 -4 -3 -9 3 -5 -5 -16 -18 -24 -13 -9 -51 -53 -85 -99 -34 -46 -66 -88
-71 -95 -17 -21 -117 -238 -130 -283 -17 -55 -15 -48 -36 -145 -19 -84 -26
-342 -12 -420 4 -22 10 -53 13 -70 35 -191 146 -414 290 -581 28 -32 58 -65
69 -74 10 -8 35 -30 55 -48 55 -50 187 -136 270 -176 l74 -35 29 20 c70 50
155 179 220 334 21 51 50 208 53 285 7 176 -44 290 -226 505 -168 199 -229
311 -257 473 -29 165 29 462 124 639 19 35 33 63 32 63 -2 0 -42 -22 -90 -48z"/>
</g>
</svg>
