<?xml version="1.0" standalone="no"?>
<!DOCTYPE svg PUBLIC "-//W3C//DTD SVG 20010904//EN"
 "http://www.w3.org/TR/2001/REC-SVG-20010904/DTD/svg10.dtd">
<svg version="1.0" xmlns="http://www.w3.org/2000/svg"
 width="16.000000pt" height="16.000000pt" viewBox="0 0 16.000000 16.000000"
 preserveAspectRatio="xMidYMid meet">
<metadata>
Created by potrace 1.11, written by Peter Selinger 2001-2013
</metadata>
<g transform="translate(0.000000,16.000000) scale(0.006154,-0.006154)"
fill="#000000" stroke="none">
<path d="M1317 2501 c-88 -115 -163 -312 -191 -501 -40 -266 21 -452 227 -693
34 -40 64 -74 67 -77 4 -3 32 -41 62 -85 99 -142 129 -236 123 -375 -14 -326
-187 -616 -418 -700 -16 -5 -26 -14 -23 -19 8 -13 240 -13 311 -1 33 6 73 13
89 16 90 17 385 140 394 165 2 5 10 9 17 9 7 0 15 3 17 8 2 4 23 21 48 37 74
50 274 257 289 299 2 6 7 13 10 16 19 16 97 168 127 248 25 65 61 195 70 253
3 19 7 95 9 169 6 196 -28 372 -101 526 -13 28 -24 54 -24 57 0 7 -72 130 -80
137 -4 3 -20 25 -37 50 -26 39 -54 73 -100 123 -30 32 -126 115 -163 140 -25
17 -47 33 -50 36 -16 18 -142 86 -206 110 -32 13 -68 27 -79 31 -75 32 -187
57 -291 64 l-61 4 -36 -47z"/>
<path d="M874 2476 c-171 -62 -327 -159 -458 -286 -58 -57 -176 -203 -176
-219 0 -5 -4 -11 -9 -13 -19 -7 -126 -249 -147 -333 -30 -121 -38 -186 -38
-320 -1 -82 2 -168 6 -190 4 -22 10 -53 13 -70 7 -37 43 -163 54 -190 76 -175
152 -301 243 -398 30 -31 52 -59 50 -62 -3 -3 -1 -5 5 -5 5 0 29 -18 54 -40
63 -58 192 -143 282 -186 89 -42 115 -42 206 2 196 97 353 402 354 694 1 107
-1 120 -31 193 -42 104 -121 219 -236 342 -92 100 -191 284 -212 397 -10 54
-12 203 -3 255 4 26 11 65 14 86 15 90 99 325 126 352 11 11 12 25 2 25 -5 -1
-49 -16 -99 -34z"/>
</g>
</svg>
